<svg width="14" height="14" viewBox="0 0 14 14" fill="none" xmlns="http://www.w3.org/2000/svg">
<path d="M7 12.25C8.03835 12.25 9.05339 11.9421 9.91674 11.3652C10.7801 10.7883 11.453 9.9684 11.8504 9.00909C12.2477 8.04978 12.3517 6.99418 12.1491 5.97578C11.9466 4.95738 11.4465 4.02192 10.7123 3.28769C9.97809 2.55347 9.04262 2.05345 8.02422 1.85088C7.00582 1.64831 5.95022 1.75227 4.99091 2.14963C4.0316 2.54699 3.21166 3.2199 2.63478 4.08326C2.05791 4.94662 1.75 5.96165 1.75 7C1.75 7.868 1.96 8.68642 2.33333 9.40742L1.75 12.25L4.59258 11.6667C5.31358 12.04 6.13258 12.25 7 12.25Z" stroke="black" stroke-width="0.916667" stroke-linecap="round" stroke-linejoin="round"/>
</svg>
