<svg width="313" height="93" viewBox="0 0 313 93" fill="none" xmlns="http://www.w3.org/2000/svg">
<path d="M148.235 10.217C149.105 10.353 149.894 10.4754 150.601 10.5842C151.308 10.6658 151.92 10.7338 152.437 10.7882C153.036 10.8698 153.566 10.9378 154.028 10.9922C154.6 11.0738 155.456 10.9786 156.599 10.7066C157.741 10.4074 158.992 10.1354 160.352 9.89062C161.739 9.61863 163.154 9.46904 164.595 9.44184C166.037 9.38744 167.356 9.64583 168.553 10.217C169.749 10.7882 170.729 11.3594 171.49 11.9306C172.252 12.5017 172.85 13.1137 173.285 13.7665C173.748 14.3921 174.074 15.0584 174.264 15.7656C174.455 16.4728 174.564 17.248 174.591 18.0911C174.564 19.3423 174.264 20.5527 173.693 21.7222C173.449 22.2118 173.122 22.7286 172.714 23.2726C172.333 23.7894 171.857 24.2925 171.286 24.7821C170.715 25.2717 170.035 25.7341 169.246 26.1693C168.485 26.6045 167.587 26.9852 166.554 27.3116C167.56 27.6108 168.389 27.9644 169.042 28.3724C169.722 28.7804 170.266 29.1612 170.674 29.5148C171.164 29.9499 171.531 30.3715 171.776 30.7795C172.075 31.3507 172.279 31.8403 172.388 32.2483C172.497 32.6562 172.565 33.0506 172.592 33.4314C172.646 33.785 172.714 34.1522 172.796 34.533C172.877 34.9138 173.054 35.349 173.326 35.8385C173.544 36.2193 173.802 36.6137 174.101 37.0217C174.373 37.3753 174.686 37.7561 175.04 38.1641C175.42 38.572 175.883 38.9664 176.427 39.3472C175.665 39.3744 174.958 39.388 174.305 39.388C173.68 39.388 173.136 39.388 172.673 39.388C172.129 39.388 171.613 39.3744 171.123 39.3472C170.633 39.32 170.021 39.3064 169.287 39.3064C168.661 39.3064 167.859 39.3064 166.88 39.3064C165.928 39.3064 164.772 39.32 163.412 39.3472C164.01 38.8848 164.5 38.4225 164.881 37.9601C165.262 37.4977 165.561 37.0761 165.778 36.6953C166.023 36.2601 166.2 35.8385 166.309 35.4306C166.445 34.6962 166.458 33.9346 166.35 33.1458C166.268 32.4659 166.05 31.7179 165.697 30.9019C165.343 30.0587 164.772 29.2156 163.983 28.3724C163.194 28.5084 162.528 28.6172 161.984 28.6988C161.467 28.7532 161.019 28.8076 160.638 28.862C160.203 28.9164 159.849 28.9572 159.577 28.9844C159.332 29.0116 159.06 29.0388 158.761 29.066C158.516 29.0932 158.244 29.134 157.945 29.1884C157.673 29.2156 157.415 29.2564 157.17 29.3108C157.115 30.4803 157.115 31.5003 157.17 32.3707C157.224 33.2138 157.292 33.921 157.374 34.4922C157.483 35.1722 157.605 35.7569 157.741 36.2465C157.877 36.7361 158.067 37.2121 158.312 37.6745C158.503 38.0553 158.747 38.4633 159.047 38.8984C159.346 39.3064 159.686 39.6464 160.067 39.9184C159.359 39.9184 158.679 39.9184 158.027 39.9184C157.401 39.9184 156.83 39.9048 156.313 39.8776C155.715 39.8776 155.144 39.864 154.6 39.8368C154.056 39.8096 153.444 39.796 152.764 39.796C152.192 39.796 151.512 39.796 150.724 39.796C149.962 39.796 149.133 39.8096 148.235 39.8368C148.942 39.1024 149.5 38.4769 149.908 37.9601C150.316 37.4433 150.629 37.0081 150.846 36.6545C151.091 36.2737 151.24 35.9473 151.295 35.6753C151.349 35.2402 151.39 34.465 151.417 33.3498C151.472 32.2075 151.512 30.9019 151.54 29.4332C151.567 27.9644 151.58 26.4277 151.58 24.8229C151.58 23.2182 151.567 21.7222 151.54 20.3351C151.512 18.9207 151.485 17.7104 151.458 16.704C151.431 15.6976 151.404 15.0584 151.376 14.7865C151.295 14.2969 151.118 13.8073 150.846 13.3177C150.629 12.8825 150.316 12.3929 149.908 11.849C149.5 11.305 148.942 10.761 148.235 10.217ZM163.657 24.5781C163.929 24.4149 164.16 24.2517 164.35 24.0885C164.541 23.9253 164.704 23.667 164.84 23.3134C164.976 22.9326 165.085 22.4022 165.166 21.7222C165.275 21.0422 165.398 20.1175 165.534 18.9479C165.642 17.7784 165.561 16.8128 165.289 16.0512C165.044 15.2896 164.704 14.6913 164.269 14.2561C163.861 13.7937 163.398 13.4809 162.882 13.3177C162.392 13.1273 161.957 13.0321 161.576 13.0321C160.815 13.0321 160.067 13.2633 159.332 13.7257C158.598 14.1881 158.04 14.8137 157.659 15.6024C157.523 15.956 157.401 16.5408 157.292 17.3568C157.211 18.0639 157.156 19.0431 157.129 20.2943C157.102 21.5454 157.143 23.191 157.251 25.2309C158.285 25.3941 159.196 25.4621 159.985 25.4349C160.774 25.3805 161.44 25.2853 161.984 25.1493C162.637 25.0133 163.194 24.8229 163.657 24.5781ZM190.91 9.23785C192.379 9.29224 193.861 9.56424 195.357 10.0538C196.881 10.5162 198.281 11.2778 199.56 12.3385C200.838 13.3721 201.926 14.7185 202.824 16.3776C203.721 18.0095 204.279 20.0087 204.496 22.375C204.687 24.3061 204.442 26.2237 203.762 28.1276C203.109 30.0043 202.198 31.7315 201.028 33.309C199.859 34.8866 198.512 36.2329 196.989 37.3481C195.466 38.4361 193.943 39.1568 192.42 39.5104C191.495 39.728 190.475 39.7552 189.36 39.592C188.272 39.4016 187.157 39.0616 186.014 38.572C184.899 38.0553 183.798 37.4025 182.71 36.6137C181.649 35.8249 180.683 34.9274 179.813 33.921C178.943 32.8874 178.208 31.7723 177.61 30.5755C177.039 29.3788 176.685 28.1276 176.549 26.822C176.413 25.7341 176.4 24.5373 176.508 23.2318C176.644 21.899 176.903 20.5799 177.284 19.2743C177.692 17.9416 178.249 16.6632 178.956 15.4392C179.691 14.1881 180.615 13.1001 181.731 12.1753C182.846 11.2234 184.151 10.489 185.647 9.97222C187.17 9.42824 188.925 9.18345 190.91 9.23785ZM183.607 25.7613C183.227 28.6716 183.499 31.0107 184.423 32.7786C185.375 34.5466 186.803 35.6209 188.707 36.0017C189.632 36.1921 190.516 36.0017 191.359 35.4306C192.229 34.8322 193.018 33.9754 193.725 32.8602C194.433 31.7451 195.045 30.4395 195.561 28.9436C196.078 27.4476 196.459 25.8837 196.704 24.2517C196.949 22.6198 196.962 21.151 196.745 19.8455C196.554 18.5127 196.214 17.384 195.725 16.4592C195.235 15.5072 194.637 14.7729 193.929 14.2561C193.249 13.7393 192.542 13.4537 191.808 13.3993C190.53 13.3177 189.414 13.6577 188.462 14.4193C187.51 15.1536 186.708 16.1192 186.055 17.316C185.403 18.5127 184.872 19.8591 184.464 21.355C184.083 22.851 183.798 24.3197 183.607 25.7613ZM217.756 9.84983C218.708 9.84983 219.565 10.013 220.326 10.3394C221.115 10.6386 221.836 10.9786 222.488 11.3594C223.168 11.7402 223.808 12.0937 224.406 12.4201C225.004 12.7193 225.616 12.8689 226.242 12.8689C226.732 12.8417 227.289 12.7737 227.915 12.6649C228.459 12.5561 229.084 12.3929 229.791 12.1753C230.526 11.9306 231.342 11.577 232.239 11.1146C231.342 11.985 230.607 12.7193 230.036 13.3177C229.492 13.8889 229.071 14.3649 228.771 14.7457C228.418 15.1808 228.159 15.5208 227.996 15.7656C227.833 16.0648 227.588 16.5136 227.262 17.112C226.963 17.656 226.555 18.3903 226.038 19.3151C225.521 20.2127 224.868 21.3958 224.08 22.8646C224.08 20.9878 223.889 19.5327 223.508 18.4991C223.155 17.4656 222.76 16.6768 222.325 16.1328C221.808 15.5072 221.224 15.1128 220.571 14.9497C219.973 14.8681 219.374 14.9769 218.776 15.276C218.177 15.548 217.579 15.956 216.981 16.5C216.409 17.044 215.852 17.6968 215.308 18.4583C214.791 19.1927 214.315 19.9679 213.88 20.7839C213.472 21.5998 213.132 22.4294 212.86 23.2726C212.588 24.0885 212.411 24.8501 212.33 25.5573C212.248 26.1829 212.234 26.9172 212.289 27.7604C212.343 28.5764 212.466 29.4196 212.656 30.2899C212.846 31.1331 213.091 31.9627 213.39 32.7786C213.69 33.5946 214.057 34.329 214.492 34.9818C214.954 35.6073 215.471 36.1241 216.042 36.5321C216.613 36.9129 217.266 37.0897 218.001 37.0625C218.817 37.0081 219.619 36.7633 220.408 36.3281C221.088 35.9745 221.781 35.4306 222.488 34.6962C223.196 33.9346 223.808 32.8602 224.324 31.4731L230.363 32.5747C228.622 34.6962 226.922 36.2873 225.263 37.3481C223.631 38.4089 222.162 39.1568 220.857 39.592C219.333 40.0816 217.892 40.3128 216.532 40.2856C214.818 40.0952 213.214 39.5784 211.718 38.7352C210.222 37.8921 208.93 36.8721 207.842 35.6753C206.781 34.4514 205.951 33.1186 205.353 31.6771C204.755 30.2355 204.496 28.8212 204.578 27.434C204.632 26.5093 204.823 25.4349 205.149 24.2109C205.475 22.9598 205.911 21.6814 206.455 20.3759C207.026 19.0703 207.706 17.792 208.495 16.5408C209.283 15.2896 210.154 14.1745 211.106 13.1953C212.058 12.1889 213.091 11.3866 214.206 10.7882C215.349 10.1626 216.532 9.84983 217.756 9.84983ZM231.097 10.8698C232.022 11.0058 232.838 11.101 233.545 11.1554C234.279 11.2098 234.891 11.2642 235.381 11.3186C235.952 11.373 236.442 11.4002 236.85 11.4002H238.441C239.501 11.4002 241.256 11.3594 243.704 11.2778C243.105 11.4682 242.602 11.7402 242.194 12.0937C241.813 12.4473 241.501 12.8145 241.256 13.1953C240.957 13.6305 240.739 14.0793 240.603 14.5417C240.44 15.1128 240.29 15.8744 240.154 16.8264C240.018 17.6696 239.882 18.7711 239.746 20.1311C239.637 21.491 239.529 23.191 239.42 25.2309C240.589 23.8981 241.609 22.715 242.48 21.6814C243.377 20.6479 244.153 19.7367 244.805 18.9479C245.458 18.1591 246.002 17.4792 246.437 16.908C246.9 16.3368 247.28 15.8472 247.58 15.4392C248.287 14.5145 248.695 13.8889 248.804 13.5625C248.831 13.3721 248.817 13.1409 248.763 12.8689C248.708 12.6513 248.627 12.3929 248.518 12.0937C248.409 11.7674 248.246 11.4138 248.028 11.033C249.116 11.0874 250.041 11.1282 250.803 11.1554C251.591 11.1826 252.244 11.2098 252.761 11.237C253.359 11.2642 253.849 11.2778 254.23 11.2778H255.943C256.569 11.2778 257.385 11.2778 258.391 11.2778C259.398 11.2506 260.662 11.2234 262.186 11.1962C261.179 11.441 260.227 11.7674 259.33 12.1753C258.432 12.5833 257.63 12.9777 256.922 13.3585C256.107 13.8209 255.345 14.2969 254.638 14.7865C253.931 15.3304 253.142 15.9696 252.271 16.704C251.537 17.3296 250.68 18.1047 249.701 19.0295C248.722 19.9271 247.661 20.9742 246.519 22.171C247.743 24.5645 248.804 26.5365 249.701 28.0868C250.626 29.61 251.401 30.8339 252.027 31.7587C252.734 32.8466 253.332 33.6762 253.822 34.2474C254.311 34.7642 254.883 35.2946 255.535 35.8385C256.079 36.3009 256.759 36.8177 257.575 37.3889C258.391 37.9329 259.33 38.4633 260.39 38.98L248.763 39.5512C248.926 39.3336 249.021 39.0752 249.048 38.776C249.103 38.4497 249.13 38.1505 249.13 37.8785C249.13 37.5793 249.103 37.2529 249.048 36.8993C248.94 36.4641 248.654 35.7569 248.192 34.7778C247.811 33.9346 247.226 32.7514 246.437 31.2283C245.648 29.678 244.561 27.638 243.173 25.1085L239.705 28.7396C239.569 29.61 239.501 30.3987 239.501 31.1059C239.501 31.8131 239.529 32.3979 239.583 32.8602C239.665 33.4314 239.773 33.921 239.909 34.329C240.073 34.737 240.304 35.1994 240.603 35.7161C240.848 36.1785 241.174 36.7225 241.582 37.3481C241.99 37.9737 242.507 38.6672 243.133 39.4288C242.507 39.2656 241.881 39.1568 241.256 39.1024C240.63 39.0208 240.059 38.9664 239.542 38.9392C238.944 38.912 238.373 38.9256 237.829 38.98C237.258 39.0344 236.591 39.116 235.83 39.2248C235.177 39.3336 234.374 39.4696 233.422 39.6328C232.471 39.796 231.383 40 230.159 40.2448C230.757 39.8912 231.233 39.5104 231.587 39.1024C231.94 38.6944 232.226 38.3001 232.443 37.9193C232.688 37.4841 232.851 37.0625 232.933 36.6545C232.987 36.3009 233.028 35.5394 233.055 34.3698C233.11 33.2002 233.137 31.8403 233.137 30.2899C233.164 28.7124 233.164 27.0532 233.137 25.3125C233.11 23.5718 233.083 21.9398 233.055 20.4167C233.028 18.8935 232.987 17.6016 232.933 16.5408C232.906 15.4528 232.879 14.7865 232.851 14.5417C232.77 14.1609 232.661 13.7529 232.525 13.3177C232.389 12.9369 232.199 12.5425 231.954 12.1345C231.736 11.6994 231.451 11.2778 231.097 10.8698Z" fill="#131313"/>
<path d="M148.235 10.217C149.105 10.353 149.894 10.4754 150.601 10.5842C151.308 10.6658 151.92 10.7338 152.437 10.7882C153.036 10.8698 153.566 10.9378 154.028 10.9922C154.6 11.0738 155.456 10.9786 156.599 10.7066C157.741 10.4074 158.992 10.1354 160.352 9.89062C161.739 9.61863 163.154 9.46904 164.595 9.44184C166.037 9.38744 167.356 9.64583 168.553 10.217C169.749 10.7882 170.729 11.3594 171.49 11.9306C172.252 12.5017 172.85 13.1137 173.285 13.7665C173.748 14.3921 174.074 15.0584 174.264 15.7656C174.455 16.4728 174.564 17.248 174.591 18.0911C174.564 19.3423 174.264 20.5527 173.693 21.7222C173.449 22.2118 173.122 22.7286 172.714 23.2726C172.333 23.7894 171.857 24.2925 171.286 24.7821C170.715 25.2717 170.035 25.7341 169.246 26.1693C168.485 26.6045 167.587 26.9852 166.554 27.3116C167.56 27.6108 168.389 27.9644 169.042 28.3724C169.722 28.7804 170.266 29.1612 170.674 29.5148C171.164 29.9499 171.531 30.3715 171.776 30.7795C172.075 31.3507 172.279 31.8403 172.388 32.2483C172.497 32.6562 172.565 33.0506 172.592 33.4314C172.646 33.785 172.714 34.1522 172.796 34.533C172.877 34.9138 173.054 35.349 173.326 35.8385C173.544 36.2193 173.802 36.6137 174.101 37.0217C174.373 37.3753 174.686 37.7561 175.04 38.1641C175.42 38.572 175.883 38.9664 176.427 39.3472C175.665 39.3744 174.958 39.388 174.305 39.388C173.68 39.388 173.136 39.388 172.673 39.388C172.129 39.388 171.613 39.3744 171.123 39.3472C170.633 39.32 170.021 39.3064 169.287 39.3064C168.661 39.3064 167.859 39.3064 166.88 39.3064C165.928 39.3064 164.772 39.32 163.412 39.3472C164.01 38.8848 164.5 38.4225 164.881 37.9601C165.262 37.4977 165.561 37.0761 165.778 36.6953C166.023 36.2601 166.2 35.8385 166.309 35.4306C166.445 34.6962 166.458 33.9346 166.35 33.1458C166.268 32.4659 166.05 31.7179 165.697 30.9019C165.343 30.0587 164.772 29.2156 163.983 28.3724C163.194 28.5084 162.528 28.6172 161.984 28.6988C161.467 28.7532 161.019 28.8076 160.638 28.862C160.203 28.9164 159.849 28.9572 159.577 28.9844C159.332 29.0116 159.06 29.0388 158.761 29.066C158.516 29.0932 158.244 29.134 157.945 29.1884C157.673 29.2156 157.415 29.2564 157.17 29.3108C157.115 30.4803 157.115 31.5003 157.17 32.3707C157.224 33.2138 157.292 33.921 157.374 34.4922C157.483 35.1722 157.605 35.7569 157.741 36.2465C157.877 36.7361 158.067 37.2121 158.312 37.6745C158.503 38.0553 158.747 38.4633 159.047 38.8984C159.346 39.3064 159.686 39.6464 160.067 39.9184C159.359 39.9184 158.679 39.9184 158.027 39.9184C157.401 39.9184 156.83 39.9048 156.313 39.8776C155.715 39.8776 155.144 39.864 154.6 39.8368C154.056 39.8096 153.444 39.796 152.764 39.796C152.192 39.796 151.512 39.796 150.724 39.796C149.962 39.796 149.133 39.8096 148.235 39.8368C148.942 39.1024 149.5 38.4769 149.908 37.9601C150.316 37.4433 150.629 37.0081 150.846 36.6545C151.091 36.2737 151.24 35.9473 151.295 35.6753C151.349 35.2402 151.39 34.465 151.417 33.3498C151.472 32.2075 151.512 30.9019 151.54 29.4332C151.567 27.9644 151.58 26.4277 151.58 24.8229C151.58 23.2182 151.567 21.7222 151.54 20.3351C151.512 18.9207 151.485 17.7104 151.458 16.704C151.431 15.6976 151.404 15.0584 151.376 14.7865C151.295 14.2969 151.118 13.8073 150.846 13.3177C150.629 12.8825 150.316 12.3929 149.908 11.849C149.5 11.305 148.942 10.761 148.235 10.217ZM163.657 24.5781C163.929 24.4149 164.16 24.2517 164.35 24.0885C164.541 23.9253 164.704 23.667 164.84 23.3134C164.976 22.9326 165.085 22.4022 165.166 21.7222C165.275 21.0422 165.398 20.1175 165.534 18.9479C165.642 17.7784 165.561 16.8128 165.289 16.0512C165.044 15.2896 164.704 14.6913 164.269 14.2561C163.861 13.7937 163.398 13.4809 162.882 13.3177C162.392 13.1273 161.957 13.0321 161.576 13.0321C160.815 13.0321 160.067 13.2633 159.332 13.7257C158.598 14.1881 158.04 14.8137 157.659 15.6024C157.523 15.956 157.401 16.5408 157.292 17.3568C157.211 18.0639 157.156 19.0431 157.129 20.2943C157.102 21.5454 157.143 23.191 157.251 25.2309C158.285 25.3941 159.196 25.4621 159.985 25.4349C160.774 25.3805 161.44 25.2853 161.984 25.1493C162.637 25.0133 163.194 24.8229 163.657 24.5781ZM190.91 9.23785C192.379 9.29224 193.861 9.56424 195.357 10.0538C196.881 10.5162 198.281 11.2778 199.56 12.3385C200.838 13.3721 201.926 14.7185 202.824 16.3776C203.721 18.0095 204.279 20.0087 204.496 22.375C204.687 24.3061 204.442 26.2237 203.762 28.1276C203.109 30.0043 202.198 31.7315 201.028 33.309C199.859 34.8866 198.512 36.2329 196.989 37.3481C195.466 38.4361 193.943 39.1568 192.42 39.5104C191.495 39.728 190.475 39.7552 189.36 39.592C188.272 39.4016 187.157 39.0616 186.014 38.572C184.899 38.0553 183.798 37.4025 182.71 36.6137C181.649 35.8249 180.683 34.9274 179.813 33.921C178.943 32.8874 178.208 31.7723 177.61 30.5755C177.039 29.3788 176.685 28.1276 176.549 26.822C176.413 25.7341 176.4 24.5373 176.508 23.2318C176.644 21.899 176.903 20.5799 177.284 19.2743C177.692 17.9416 178.249 16.6632 178.956 15.4392C179.691 14.1881 180.615 13.1001 181.731 12.1753C182.846 11.2234 184.151 10.489 185.647 9.97222C187.17 9.42824 188.925 9.18345 190.91 9.23785ZM183.607 25.7613C183.227 28.6716 183.499 31.0107 184.423 32.7786C185.375 34.5466 186.803 35.6209 188.707 36.0017C189.632 36.1921 190.516 36.0017 191.359 35.4306C192.229 34.8322 193.018 33.9754 193.725 32.8602C194.433 31.7451 195.045 30.4395 195.561 28.9436C196.078 27.4476 196.459 25.8837 196.704 24.2517C196.949 22.6198 196.962 21.151 196.745 19.8455C196.554 18.5127 196.214 17.384 195.725 16.4592C195.235 15.5072 194.637 14.7729 193.929 14.2561C193.249 13.7393 192.542 13.4537 191.808 13.3993C190.53 13.3177 189.414 13.6577 188.462 14.4193C187.51 15.1536 186.708 16.1192 186.055 17.316C185.403 18.5127 184.872 19.8591 184.464 21.355C184.083 22.851 183.798 24.3197 183.607 25.7613ZM217.756 9.84983C218.708 9.84983 219.565 10.013 220.326 10.3394C221.115 10.6386 221.836 10.9786 222.488 11.3594C223.168 11.7402 223.808 12.0937 224.406 12.4201C225.004 12.7193 225.616 12.8689 226.242 12.8689C226.732 12.8417 227.289 12.7737 227.915 12.6649C228.459 12.5561 229.084 12.3929 229.791 12.1753C230.526 11.9306 231.342 11.577 232.239 11.1146C231.342 11.985 230.607 12.7193 230.036 13.3177C229.492 13.8889 229.071 14.3649 228.771 14.7457C228.418 15.1808 228.159 15.5208 227.996 15.7656C227.833 16.0648 227.588 16.5136 227.262 17.112C226.963 17.656 226.555 18.3903 226.038 19.3151C225.521 20.2127 224.868 21.3958 224.08 22.8646C224.08 20.9878 223.889 19.5327 223.508 18.4991C223.155 17.4656 222.76 16.6768 222.325 16.1328C221.808 15.5072 221.224 15.1128 220.571 14.9497C219.973 14.8681 219.374 14.9769 218.776 15.276C218.177 15.548 217.579 15.956 216.981 16.5C216.409 17.044 215.852 17.6968 215.308 18.4583C214.791 19.1927 214.315 19.9679 213.88 20.7839C213.472 21.5998 213.132 22.4294 212.86 23.2726C212.588 24.0885 212.411 24.8501 212.33 25.5573C212.248 26.1829 212.234 26.9172 212.289 27.7604C212.343 28.5764 212.466 29.4196 212.656 30.2899C212.846 31.1331 213.091 31.9627 213.39 32.7786C213.69 33.5946 214.057 34.329 214.492 34.9818C214.954 35.6073 215.471 36.1241 216.042 36.5321C216.613 36.9129 217.266 37.0897 218.001 37.0625C218.817 37.0081 219.619 36.7633 220.408 36.3281C221.088 35.9745 221.781 35.4306 222.488 34.6962C223.196 33.9346 223.808 32.8602 224.324 31.4731L230.363 32.5747C228.622 34.6962 226.922 36.2873 225.263 37.3481C223.631 38.4089 222.162 39.1568 220.857 39.592C219.333 40.0816 217.892 40.3128 216.532 40.2856C214.818 40.0952 213.214 39.5784 211.718 38.7352C210.222 37.8921 208.93 36.8721 207.842 35.6753C206.781 34.4514 205.951 33.1186 205.353 31.6771C204.755 30.2355 204.496 28.8212 204.578 27.434C204.632 26.5093 204.823 25.4349 205.149 24.2109C205.475 22.9598 205.911 21.6814 206.455 20.3759C207.026 19.0703 207.706 17.792 208.495 16.5408C209.283 15.2896 210.154 14.1745 211.106 13.1953C212.058 12.1889 213.091 11.3866 214.206 10.7882C215.349 10.1626 216.532 9.84983 217.756 9.84983ZM231.097 10.8698C232.022 11.0058 232.838 11.101 233.545 11.1554C234.279 11.2098 234.891 11.2642 235.381 11.3186C235.952 11.373 236.442 11.4002 236.85 11.4002H238.441C239.501 11.4002 241.256 11.3594 243.704 11.2778C243.105 11.4682 242.602 11.7402 242.194 12.0937C241.813 12.4473 241.501 12.8145 241.256 13.1953C240.957 13.6305 240.739 14.0793 240.603 14.5417C240.44 15.1128 240.29 15.8744 240.154 16.8264C240.018 17.6696 239.882 18.7711 239.746 20.1311C239.637 21.491 239.529 23.191 239.42 25.2309C240.589 23.8981 241.609 22.715 242.48 21.6814C243.377 20.6479 244.153 19.7367 244.805 18.9479C245.458 18.1591 246.002 17.4792 246.437 16.908C246.9 16.3368 247.28 15.8472 247.58 15.4392C248.287 14.5145 248.695 13.8889 248.804 13.5625C248.831 13.3721 248.817 13.1409 248.763 12.8689C248.708 12.6513 248.627 12.3929 248.518 12.0937C248.409 11.7674 248.246 11.4138 248.028 11.033C249.116 11.0874 250.041 11.1282 250.803 11.1554C251.591 11.1826 252.244 11.2098 252.761 11.237C253.359 11.2642 253.849 11.2778 254.23 11.2778H255.943C256.569 11.2778 257.385 11.2778 258.391 11.2778C259.398 11.2506 260.662 11.2234 262.186 11.1962C261.179 11.441 260.227 11.7674 259.33 12.1753C258.432 12.5833 257.63 12.9777 256.922 13.3585C256.107 13.8209 255.345 14.2969 254.638 14.7865C253.931 15.3304 253.142 15.9696 252.271 16.704C251.537 17.3296 250.68 18.1047 249.701 19.0295C248.722 19.9271 247.661 20.9742 246.519 22.171C247.743 24.5645 248.804 26.5365 249.701 28.0868C250.626 29.61 251.401 30.8339 252.027 31.7587C252.734 32.8466 253.332 33.6762 253.822 34.2474C254.311 34.7642 254.883 35.2946 255.535 35.8385C256.079 36.3009 256.759 36.8177 257.575 37.3889C258.391 37.9329 259.33 38.4633 260.39 38.98L248.763 39.5512C248.926 39.3336 249.021 39.0752 249.048 38.776C249.103 38.4497 249.13 38.1505 249.13 37.8785C249.13 37.5793 249.103 37.2529 249.048 36.8993C248.94 36.4641 248.654 35.7569 248.192 34.7778C247.811 33.9346 247.226 32.7514 246.437 31.2283C245.648 29.678 244.561 27.638 243.173 25.1085L239.705 28.7396C239.569 29.61 239.501 30.3987 239.501 31.1059C239.501 31.8131 239.529 32.3979 239.583 32.8602C239.665 33.4314 239.773 33.921 239.909 34.329C240.073 34.737 240.304 35.1994 240.603 35.7161C240.848 36.1785 241.174 36.7225 241.582 37.3481C241.99 37.9737 242.507 38.6672 243.133 39.4288C242.507 39.2656 241.881 39.1568 241.256 39.1024C240.63 39.0208 240.059 38.9664 239.542 38.9392C238.944 38.912 238.373 38.9256 237.829 38.98C237.258 39.0344 236.591 39.116 235.83 39.2248C235.177 39.3336 234.374 39.4696 233.422 39.6328C232.471 39.796 231.383 40 230.159 40.2448C230.757 39.8912 231.233 39.5104 231.587 39.1024C231.94 38.6944 232.226 38.3001 232.443 37.9193C232.688 37.4841 232.851 37.0625 232.933 36.6545C232.987 36.3009 233.028 35.5394 233.055 34.3698C233.11 33.2002 233.137 31.8403 233.137 30.2899C233.164 28.7124 233.164 27.0532 233.137 25.3125C233.11 23.5718 233.083 21.9398 233.055 20.4167C233.028 18.8935 232.987 17.6016 232.933 16.5408C232.906 15.4528 232.879 14.7865 232.851 14.5417C232.77 14.1609 232.661 13.7529 232.525 13.3177C232.389 12.9369 232.199 12.5425 231.954 12.1345C231.736 11.6994 231.451 11.2778 231.097 10.8698Z" fill="url(#paint0_linear_1_55)" fill-opacity="0.3"/>
<path d="M149.092 52.6068C149.962 52.8244 150.792 52.9876 151.58 53.0963C152.369 53.2051 153.063 53.2867 153.661 53.3411C154.368 53.4227 155.021 53.4499 155.62 53.4227C156.381 53.4227 157.333 53.3547 158.475 53.2187C159.645 53.0827 160.842 52.9604 162.066 52.8516C163.29 52.7156 164.459 52.634 165.574 52.6068C166.717 52.5524 167.642 52.6204 168.349 52.8108C169.056 52.974 169.777 53.2323 170.511 53.5859C171.273 53.9123 171.966 54.3339 172.592 54.8507C173.217 55.3403 173.734 55.9251 174.142 56.605C174.55 57.2578 174.781 58.0058 174.836 58.849C174.808 59.9097 174.564 60.9025 174.101 61.8272C173.721 62.616 173.081 63.432 172.184 64.2752C171.286 65.0911 169.994 65.7167 168.308 66.1519C169.151 66.2607 169.872 66.4511 170.47 66.7231C171.096 66.9679 171.626 67.2671 172.061 67.6207C172.524 67.947 172.891 68.3142 173.163 68.7222C173.462 69.1302 173.693 69.5382 173.857 69.9462C174.264 70.8981 174.455 71.9589 174.428 73.1285C174.264 74.6516 173.952 75.862 173.489 76.7595C173.054 77.6571 172.551 78.3507 171.98 78.8403C171.409 79.3299 170.824 79.6698 170.225 79.8602C169.627 80.0506 169.083 80.2002 168.593 80.309C168.104 80.4178 167.506 80.4722 166.798 80.4722C166.091 80.4722 165.33 80.4586 164.514 80.4314C163.725 80.377 162.909 80.3362 162.066 80.309C161.223 80.2546 160.42 80.2546 159.659 80.309C159.033 80.3634 158.271 80.4178 157.374 80.4722C156.612 80.5266 155.66 80.5946 154.518 80.6762C153.376 80.7306 152.043 80.7986 150.52 80.8802C150.819 80.6626 151.064 80.4178 151.254 80.1458C151.472 79.8466 151.648 79.5882 151.784 79.3707C151.92 79.0987 152.043 78.8403 152.152 78.5955C152.233 78.3779 152.301 77.7795 152.356 76.8003C152.41 75.8212 152.451 74.6516 152.478 73.2917C152.505 71.9045 152.519 70.4222 152.519 68.8446C152.546 67.2399 152.532 65.7031 152.478 64.2344C152.451 62.7384 152.396 61.4193 152.315 60.2769C152.26 59.1073 152.179 58.2642 152.07 57.7474C151.907 57.1762 151.689 56.5914 151.417 55.993C151.2 55.4763 150.887 54.9187 150.479 54.3203C150.098 53.7219 149.636 53.1507 149.092 52.6068ZM157.7 56.7682C157.7 56.877 157.714 57.2442 157.741 57.8698C157.768 58.4138 157.795 59.2569 157.823 60.3993C157.877 61.5145 157.945 63.1056 158.027 65.1727C158.707 65.4719 159.373 65.6351 160.026 65.6623C160.679 65.6623 161.263 65.6351 161.78 65.5807C162.379 65.4991 162.95 65.3631 163.494 65.1727C164.228 64.8735 164.799 64.384 165.207 63.704C165.642 63.024 165.928 62.3168 166.064 61.5825C166.227 60.8209 166.268 60.1137 166.186 59.4609C166.105 58.781 165.928 58.2914 165.656 57.9922C165.139 57.5298 164.5 57.149 163.738 56.8498C163.086 56.605 162.256 56.4418 161.25 56.3602C160.271 56.2514 159.087 56.3874 157.7 56.7682ZM157.496 76.1068C158.503 76.6235 159.387 76.9635 160.148 77.1267C160.91 77.2899 161.549 77.3715 162.066 77.3715C162.664 77.3715 163.181 77.2899 163.616 77.1267C164.133 76.8819 164.636 76.5555 165.126 76.1476C165.642 75.7124 166.023 75.2092 166.268 74.638C166.54 74.0396 166.649 73.3869 166.594 72.6797C166.54 71.9453 166.227 71.1429 165.656 70.2726C165.139 69.647 164.514 69.1574 163.779 68.8038C163.126 68.5046 162.297 68.3142 161.291 68.2326C160.311 68.151 159.101 68.3822 157.659 68.9262L157.496 76.1068ZM190.584 51.0156C192.053 51.07 193.535 51.342 195.031 51.8316C196.554 52.294 197.955 53.0555 199.233 54.1163C200.512 55.1499 201.6 56.4962 202.497 58.1554C203.395 59.7873 203.952 61.7865 204.17 64.1528C204.36 66.0839 204.115 68.0014 203.436 69.9054C202.783 71.7821 201.872 73.5093 200.702 75.0868C199.532 76.6643 198.186 78.0107 196.663 79.1259C195.14 80.2138 193.617 80.9346 192.093 81.2882C191.169 81.5058 190.149 81.533 189.034 81.3698C187.946 81.1794 186.83 80.8394 185.688 80.3498C184.573 79.833 183.471 79.1803 182.383 78.3915C181.323 77.6027 180.357 76.7051 179.487 75.6988C178.616 74.6652 177.882 73.5501 177.284 72.3533C176.712 71.1565 176.359 69.9054 176.223 68.5998C176.087 67.5119 176.073 66.3151 176.182 65.0095C176.318 63.6768 176.576 62.3576 176.957 61.0521C177.365 59.7193 177.923 58.441 178.63 57.217C179.364 55.9658 180.289 54.8779 181.404 53.9531C182.519 53.0012 183.825 52.2668 185.321 51.75C186.844 51.206 188.598 50.9612 190.584 51.0156ZM183.281 67.5391C182.9 70.4494 183.172 72.7885 184.097 74.5564C185.049 76.3244 186.477 77.3987 188.381 77.7795C189.306 77.9699 190.19 77.7795 191.033 77.2083C191.903 76.6099 192.692 75.7532 193.399 74.638C194.106 73.5229 194.718 72.2173 195.235 70.7213C195.752 69.2254 196.133 67.6615 196.377 66.0295C196.622 64.3976 196.636 62.9288 196.418 61.6233C196.228 60.2905 195.888 59.1617 195.398 58.237C194.909 57.285 194.31 56.5506 193.603 56.0338C192.923 55.5171 192.216 55.2315 191.482 55.1771C190.203 55.0955 189.088 55.4355 188.136 56.197C187.184 56.9314 186.382 57.897 185.729 59.0937C185.076 60.2905 184.546 61.6369 184.138 63.1328C183.757 64.6288 183.471 66.0975 183.281 67.5391ZM204.251 51.9948C206.074 52.2124 207.651 52.3756 208.984 52.4844C210.317 52.566 211.418 52.634 212.289 52.6884C213.295 52.7428 214.138 52.7564 214.818 52.7292C215.525 52.702 216.491 52.634 217.715 52.5252C218.749 52.4436 220.109 52.3348 221.795 52.1988C223.481 52.0356 225.589 51.818 228.119 51.546C228.146 52.1716 228.159 52.7836 228.159 53.3819C228.187 53.9531 228.214 54.4563 228.241 54.8915C228.268 55.4083 228.282 55.8843 228.282 56.3194C228.282 56.7818 228.255 57.3666 228.2 58.0738C228.146 58.6722 228.051 59.4337 227.915 60.3585C227.806 61.2561 227.629 62.3304 227.384 63.5816C227.004 62.1128 226.636 60.9297 226.283 60.0321C225.929 59.1073 225.603 58.373 225.304 57.829C224.977 57.2034 224.651 56.7274 224.324 56.401C223.971 56.1562 223.549 55.9522 223.06 55.7891C222.624 55.6531 222.067 55.5443 221.387 55.4627C220.734 55.3811 219.959 55.3947 219.061 55.5035C218.925 59.0937 218.83 62.004 218.776 64.2344C218.721 66.4647 218.681 68.2054 218.653 69.4566C218.626 70.9525 218.613 72.0269 218.613 72.6797C218.64 73.6044 218.789 74.5156 219.061 75.4132C219.279 76.1748 219.633 76.9635 220.122 77.7795C220.612 78.5955 221.319 79.3163 222.244 79.9418H217.266C216.804 79.9418 216.233 79.969 215.553 80.0234C214.982 80.0778 214.247 80.1322 213.35 80.1866C212.479 80.241 211.459 80.3362 210.29 80.4722C210.698 79.765 211.024 79.1259 211.269 78.5547C211.514 77.9835 211.704 77.4939 211.84 77.0859C212.003 76.5963 212.126 76.1612 212.207 75.7804C212.234 75.2364 212.302 74.1348 212.411 72.4757C212.438 71.7957 212.466 70.9525 212.493 69.9462C212.547 68.9398 212.602 67.743 212.656 66.3559C212.738 64.9687 212.806 63.3776 212.86 61.5825C212.942 59.7601 213.023 57.7066 213.105 55.4219C212.615 55.2859 212.153 55.2995 211.718 55.4627C211.282 55.5987 210.902 55.7755 210.575 55.993C210.194 56.265 209.827 56.5914 209.474 56.9722C209.12 57.4346 208.726 58.033 208.291 58.7674C207.91 59.3929 207.475 60.2225 206.985 61.2561C206.495 62.2624 205.938 63.5136 205.312 65.0095C205.176 63.432 205.081 62.14 205.027 61.1337C204.972 60.1001 204.931 59.2977 204.904 58.7266C204.877 58.0466 204.863 57.5434 204.863 57.217C204.863 56.9178 204.836 56.5234 204.782 56.0338C204.727 55.6259 204.659 55.0955 204.578 54.4427C204.496 53.7627 204.387 52.9468 204.251 51.9948ZM226.242 51.9948C228.064 52.2124 229.642 52.3756 230.975 52.4844C232.307 52.566 233.409 52.634 234.279 52.6884C235.286 52.7428 236.129 52.7564 236.809 52.7292C237.516 52.702 238.482 52.634 239.705 52.5252C240.739 52.4436 242.099 52.3348 243.785 52.1988C245.472 52.0356 247.58 51.818 250.109 51.546C250.136 52.1716 250.15 52.7836 250.15 53.3819C250.177 53.9531 250.204 54.4563 250.232 54.8915C250.259 55.4083 250.272 55.8843 250.272 56.3194C250.272 56.7818 250.245 57.3666 250.191 58.0738C250.136 58.6722 250.041 59.4337 249.905 60.3585C249.796 61.2561 249.62 62.3304 249.375 63.5816C248.994 62.1128 248.627 60.9297 248.273 60.0321C247.92 59.1073 247.593 58.373 247.294 57.829C246.968 57.2034 246.641 56.7274 246.315 56.401C245.961 56.1562 245.54 55.9522 245.05 55.7891C244.615 55.6531 244.057 55.5443 243.377 55.4627C242.725 55.3811 241.949 55.3947 241.052 55.5035C240.916 59.0937 240.821 62.004 240.766 64.2344C240.712 66.4647 240.671 68.2054 240.644 69.4566C240.617 70.9525 240.603 72.0269 240.603 72.6797C240.63 73.6044 240.78 74.5156 241.052 75.4132C241.269 76.1748 241.623 76.9635 242.113 77.7795C242.602 78.5955 243.309 79.3163 244.234 79.9418H239.257C238.794 79.9418 238.223 79.969 237.543 80.0234C236.972 80.0778 236.238 80.1322 235.34 80.1866C234.47 80.241 233.45 80.3362 232.28 80.4722C232.688 79.765 233.015 79.1259 233.259 78.5547C233.504 77.9835 233.694 77.4939 233.83 77.0859C233.994 76.5963 234.116 76.1612 234.198 75.7804C234.225 75.2364 234.293 74.1348 234.402 72.4757C234.429 71.7957 234.456 70.9525 234.483 69.9462C234.538 68.9398 234.592 67.743 234.646 66.3559C234.728 64.9687 234.796 63.3776 234.85 61.5825C234.932 59.7601 235.014 57.7066 235.095 55.4219C234.606 55.2859 234.143 55.2995 233.708 55.4627C233.273 55.5987 232.892 55.7755 232.566 55.993C232.185 56.265 231.818 56.5914 231.464 56.9722C231.111 57.4346 230.716 58.033 230.281 58.7674C229.9 59.3929 229.465 60.2225 228.975 61.2561C228.486 62.2624 227.928 63.5136 227.303 65.0095C227.167 63.432 227.072 62.14 227.017 61.1337C226.963 60.1001 226.922 59.2977 226.895 58.7266C226.868 58.0466 226.854 57.5434 226.854 57.217C226.854 56.9178 226.827 56.5234 226.772 56.0338C226.718 55.6259 226.65 55.0955 226.568 54.4427C226.487 53.7627 226.378 52.9468 226.242 51.9948ZM264.348 51.0156C265.817 51.07 267.299 51.342 268.795 51.8316C270.318 52.294 271.719 53.0555 272.997 54.1163C274.275 55.1499 275.363 56.4962 276.261 58.1554C277.159 59.7873 277.716 61.7865 277.934 64.1528C278.124 66.0839 277.879 68.0014 277.199 69.9054C276.547 71.7821 275.635 73.5093 274.466 75.0868C273.296 76.6643 271.95 78.0107 270.427 79.1259C268.904 80.2138 267.381 80.9346 265.857 81.2882C264.933 81.5058 263.913 81.533 262.797 81.3698C261.71 81.1794 260.594 80.8394 259.452 80.3498C258.337 79.833 257.235 79.1803 256.147 78.3915C255.087 77.6027 254.121 76.7051 253.251 75.6988C252.38 74.6652 251.646 73.5501 251.047 72.3533C250.476 71.1565 250.123 69.9054 249.987 68.5998C249.851 67.5119 249.837 66.3151 249.946 65.0095C250.082 63.6768 250.34 62.3576 250.721 61.0521C251.129 59.7193 251.687 58.441 252.394 57.217C253.128 55.9658 254.053 54.8779 255.168 53.9531C256.283 53.0012 257.589 52.2668 259.085 51.75C260.608 51.206 262.362 50.9612 264.348 51.0156ZM257.045 67.5391C256.664 70.4494 256.936 72.7885 257.861 74.5564C258.813 76.3244 260.241 77.3987 262.145 77.7795C263.069 77.9699 263.953 77.7795 264.797 77.2083C265.667 76.6099 266.456 75.7532 267.163 74.638C267.87 73.5229 268.482 72.2173 268.999 70.7213C269.516 69.2254 269.896 67.6615 270.141 66.0295C270.386 64.3976 270.4 62.9288 270.182 61.6233C269.992 60.2905 269.652 59.1617 269.162 58.237C268.672 57.285 268.074 56.5506 267.367 56.0338C266.687 55.5171 265.98 55.2315 265.245 55.1771C263.967 55.0955 262.852 55.4355 261.9 56.197C260.948 56.9314 260.146 57.897 259.493 59.0937C258.84 60.2905 258.31 61.6369 257.902 63.1328C257.521 64.6288 257.235 66.0975 257.045 67.5391ZM278.627 52.5252C279.498 52.5524 280.259 52.566 280.912 52.566C281.565 52.5388 282.095 52.5252 282.503 52.5252H283.686C283.986 52.498 284.353 52.4844 284.788 52.4844C285.169 52.4844 285.631 52.4844 286.175 52.4844C286.719 52.4844 287.345 52.498 288.052 52.5252C288.269 53.2867 288.514 54.0347 288.786 54.7691C289.085 55.4763 289.344 56.1154 289.561 56.6866C289.833 57.3666 290.105 58.0058 290.377 58.6042C290.649 59.2025 290.976 59.9233 291.357 60.7665C291.683 61.4737 292.077 62.344 292.54 63.3776C293.002 64.384 293.546 65.5399 294.172 66.8455C294.471 66.0023 294.743 65.2271 294.988 64.52C295.26 63.8128 295.491 63.2008 295.681 62.684C295.899 62.0856 296.076 61.5417 296.212 61.0521C296.348 60.5625 296.497 59.9641 296.66 59.2569C296.796 58.6586 296.946 57.9378 297.109 57.0946C297.3 56.2514 297.49 55.2723 297.68 54.1571C298.469 54.1571 299.176 54.1571 299.802 54.1571C300.427 54.1571 300.971 54.1435 301.434 54.1163C301.951 54.1163 302.413 54.1027 302.821 54.0755C303.256 54.0755 303.841 54.0483 304.575 53.9939C305.201 53.9395 306.03 53.8987 307.064 53.8715C308.125 53.8171 309.43 53.7491 310.981 53.6675C310.409 54.0755 309.947 54.4835 309.593 54.8915C309.267 55.2723 309.009 55.6123 308.818 55.9115C308.601 56.265 308.465 56.605 308.41 56.9314C308.356 57.2034 308.302 57.829 308.247 58.8082C308.22 59.7873 308.179 60.9569 308.125 62.3168C308.098 63.6496 308.07 65.0775 308.043 66.6007C308.043 68.1238 308.057 69.5654 308.084 70.9253C308.111 72.2853 308.152 73.4685 308.206 74.4748C308.288 75.454 308.397 76.0796 308.533 76.3516C308.723 76.6779 308.982 77.0587 309.308 77.4939C309.607 77.8747 309.988 78.3099 310.45 78.7995C310.94 79.2891 311.579 79.833 312.368 80.4314C311.117 80.4858 310.069 80.5266 309.226 80.5538C308.41 80.581 307.73 80.6082 307.186 80.6354C306.561 80.6626 306.058 80.6762 305.677 80.6762C305.269 80.6762 304.711 80.6898 304.004 80.717C303.379 80.7442 302.549 80.785 301.515 80.8394C300.482 80.8666 299.149 80.921 297.517 81.0026C297.898 80.5674 298.251 80.1322 298.578 79.697C298.904 79.2619 299.176 78.8675 299.394 78.5139C299.666 78.1059 299.897 77.7115 300.087 77.3307C300.278 76.8139 300.427 75.8756 300.536 74.5156C300.645 73.3461 300.727 71.6733 300.781 69.4974C300.835 67.2943 300.835 64.3432 300.781 60.6441C300.264 61.4873 299.802 62.3304 299.394 63.1736C299.013 63.9896 298.673 64.7376 298.374 65.4175C298.047 66.2063 297.748 66.9679 297.476 67.7022C297.204 68.4638 296.919 69.307 296.62 70.2318C296.348 71.0205 296.021 71.9589 295.64 73.0469C295.287 74.1348 294.879 75.3316 294.416 76.6371L292.866 76.7187C292.648 75.6308 292.431 74.6516 292.213 73.7812C291.996 72.8837 291.778 72.1221 291.561 71.4965C291.316 70.7621 291.071 70.1094 290.826 69.5382C290.554 68.967 290.255 68.3278 289.929 67.6207C289.629 67.0223 289.262 66.3151 288.827 65.4991C288.419 64.6832 287.943 63.772 287.399 62.7656C287.127 65.5399 286.964 67.7974 286.909 69.5382C286.855 71.2517 286.855 72.5845 286.909 73.5365C286.964 74.6788 287.045 75.5084 287.154 76.0252C287.317 76.4876 287.576 77.0043 287.929 77.5755C288.229 78.0651 288.637 78.6499 289.153 79.3299C289.697 79.9826 290.391 80.717 291.234 81.533C290.636 81.533 290.01 81.533 289.357 81.533C288.705 81.533 288.106 81.5466 287.562 81.5738C286.909 81.601 286.27 81.6146 285.645 81.6146C284.992 81.6418 284.23 81.6826 283.36 81.737C282.598 81.7914 281.687 81.8458 280.626 81.9002C279.566 81.9546 278.342 82.0498 276.955 82.1858C277.553 81.805 278.043 81.4378 278.423 81.0842C278.804 80.7034 279.103 80.3634 279.321 80.0642C279.593 79.7106 279.797 79.3571 279.933 79.0035C280.015 78.7859 280.083 78.3099 280.137 77.5755C280.218 76.8411 280.286 75.9436 280.341 74.8828C280.422 73.822 280.477 72.6389 280.504 71.3333C280.558 70.0278 280.599 68.7086 280.626 67.3759C280.681 66.0159 280.722 64.6968 280.749 63.4184C280.776 62.1128 280.79 60.9433 280.79 59.9097C280.817 58.849 280.83 57.965 280.83 57.2578C280.83 56.5506 280.83 56.1018 280.83 55.9115C280.749 55.5035 280.626 55.0955 280.463 54.6875C280.327 54.3339 280.11 53.9667 279.811 53.5859C279.511 53.2051 279.117 52.8516 278.627 52.5252Z" fill="#131313"/>
<path d="M149.092 52.6068C149.962 52.8244 150.792 52.9876 151.58 53.0963C152.369 53.2051 153.063 53.2867 153.661 53.3411C154.368 53.4227 155.021 53.4499 155.62 53.4227C156.381 53.4227 157.333 53.3547 158.475 53.2187C159.645 53.0827 160.842 52.9604 162.066 52.8516C163.29 52.7156 164.459 52.634 165.574 52.6068C166.717 52.5524 167.642 52.6204 168.349 52.8108C169.056 52.974 169.777 53.2323 170.511 53.5859C171.273 53.9123 171.966 54.3339 172.592 54.8507C173.217 55.3403 173.734 55.9251 174.142 56.605C174.55 57.2578 174.781 58.0058 174.836 58.849C174.808 59.9097 174.564 60.9025 174.101 61.8272C173.721 62.616 173.081 63.432 172.184 64.2752C171.286 65.0911 169.994 65.7167 168.308 66.1519C169.151 66.2607 169.872 66.4511 170.47 66.7231C171.096 66.9679 171.626 67.2671 172.061 67.6207C172.524 67.947 172.891 68.3142 173.163 68.7222C173.462 69.1302 173.693 69.5382 173.857 69.9462C174.264 70.8981 174.455 71.9589 174.428 73.1285C174.264 74.6516 173.952 75.862 173.489 76.7595C173.054 77.6571 172.551 78.3507 171.98 78.8403C171.409 79.3299 170.824 79.6698 170.225 79.8602C169.627 80.0506 169.083 80.2002 168.593 80.309C168.104 80.4178 167.506 80.4722 166.798 80.4722C166.091 80.4722 165.33 80.4586 164.514 80.4314C163.725 80.377 162.909 80.3362 162.066 80.309C161.223 80.2546 160.42 80.2546 159.659 80.309C159.033 80.3634 158.271 80.4178 157.374 80.4722C156.612 80.5266 155.66 80.5946 154.518 80.6762C153.376 80.7306 152.043 80.7986 150.52 80.8802C150.819 80.6626 151.064 80.4178 151.254 80.1458C151.472 79.8466 151.648 79.5882 151.784 79.3707C151.92 79.0987 152.043 78.8403 152.152 78.5955C152.233 78.3779 152.301 77.7795 152.356 76.8003C152.41 75.8212 152.451 74.6516 152.478 73.2917C152.505 71.9045 152.519 70.4222 152.519 68.8446C152.546 67.2399 152.532 65.7031 152.478 64.2344C152.451 62.7384 152.396 61.4193 152.315 60.2769C152.26 59.1073 152.179 58.2642 152.07 57.7474C151.907 57.1762 151.689 56.5914 151.417 55.993C151.2 55.4763 150.887 54.9187 150.479 54.3203C150.098 53.7219 149.636 53.1507 149.092 52.6068ZM157.7 56.7682C157.7 56.877 157.714 57.2442 157.741 57.8698C157.768 58.4138 157.795 59.2569 157.823 60.3993C157.877 61.5145 157.945 63.1056 158.027 65.1727C158.707 65.4719 159.373 65.6351 160.026 65.6623C160.679 65.6623 161.263 65.6351 161.78 65.5807C162.379 65.4991 162.95 65.3631 163.494 65.1727C164.228 64.8735 164.799 64.384 165.207 63.704C165.642 63.024 165.928 62.3168 166.064 61.5825C166.227 60.8209 166.268 60.1137 166.186 59.4609C166.105 58.781 165.928 58.2914 165.656 57.9922C165.139 57.5298 164.5 57.149 163.738 56.8498C163.086 56.605 162.256 56.4418 161.25 56.3602C160.271 56.2514 159.087 56.3874 157.7 56.7682ZM157.496 76.1068C158.503 76.6235 159.387 76.9635 160.148 77.1267C160.91 77.2899 161.549 77.3715 162.066 77.3715C162.664 77.3715 163.181 77.2899 163.616 77.1267C164.133 76.8819 164.636 76.5555 165.126 76.1476C165.642 75.7124 166.023 75.2092 166.268 74.638C166.54 74.0396 166.649 73.3869 166.594 72.6797C166.54 71.9453 166.227 71.1429 165.656 70.2726C165.139 69.647 164.514 69.1574 163.779 68.8038C163.126 68.5046 162.297 68.3142 161.291 68.2326C160.311 68.151 159.101 68.3822 157.659 68.9262L157.496 76.1068ZM190.584 51.0156C192.053 51.07 193.535 51.342 195.031 51.8316C196.554 52.294 197.955 53.0555 199.233 54.1163C200.512 55.1499 201.6 56.4962 202.497 58.1554C203.395 59.7873 203.952 61.7865 204.17 64.1528C204.36 66.0839 204.115 68.0014 203.436 69.9054C202.783 71.7821 201.872 73.5093 200.702 75.0868C199.532 76.6643 198.186 78.0107 196.663 79.1259C195.14 80.2138 193.617 80.9346 192.093 81.2882C191.169 81.5058 190.149 81.533 189.034 81.3698C187.946 81.1794 186.83 80.8394 185.688 80.3498C184.573 79.833 183.471 79.1803 182.383 78.3915C181.323 77.6027 180.357 76.7051 179.487 75.6988C178.616 74.6652 177.882 73.5501 177.284 72.3533C176.712 71.1565 176.359 69.9054 176.223 68.5998C176.087 67.5119 176.073 66.3151 176.182 65.0095C176.318 63.6768 176.576 62.3576 176.957 61.0521C177.365 59.7193 177.923 58.441 178.63 57.217C179.364 55.9658 180.289 54.8779 181.404 53.9531C182.519 53.0012 183.825 52.2668 185.321 51.75C186.844 51.206 188.598 50.9612 190.584 51.0156ZM183.281 67.5391C182.9 70.4494 183.172 72.7885 184.097 74.5564C185.049 76.3244 186.477 77.3987 188.381 77.7795C189.306 77.9699 190.19 77.7795 191.033 77.2083C191.903 76.6099 192.692 75.7532 193.399 74.638C194.106 73.5229 194.718 72.2173 195.235 70.7213C195.752 69.2254 196.133 67.6615 196.377 66.0295C196.622 64.3976 196.636 62.9288 196.418 61.6233C196.228 60.2905 195.888 59.1617 195.398 58.237C194.909 57.285 194.31 56.5506 193.603 56.0338C192.923 55.5171 192.216 55.2315 191.482 55.1771C190.203 55.0955 189.088 55.4355 188.136 56.197C187.184 56.9314 186.382 57.897 185.729 59.0937C185.076 60.2905 184.546 61.6369 184.138 63.1328C183.757 64.6288 183.471 66.0975 183.281 67.5391ZM204.251 51.9948C206.074 52.2124 207.651 52.3756 208.984 52.4844C210.317 52.566 211.418 52.634 212.289 52.6884C213.295 52.7428 214.138 52.7564 214.818 52.7292C215.525 52.702 216.491 52.634 217.715 52.5252C218.749 52.4436 220.109 52.3348 221.795 52.1988C223.481 52.0356 225.589 51.818 228.119 51.546C228.146 52.1716 228.159 52.7836 228.159 53.3819C228.187 53.9531 228.214 54.4563 228.241 54.8915C228.268 55.4083 228.282 55.8843 228.282 56.3194C228.282 56.7818 228.255 57.3666 228.2 58.0738C228.146 58.6722 228.051 59.4337 227.915 60.3585C227.806 61.2561 227.629 62.3304 227.384 63.5816C227.004 62.1128 226.636 60.9297 226.283 60.0321C225.929 59.1073 225.603 58.373 225.304 57.829C224.977 57.2034 224.651 56.7274 224.324 56.401C223.971 56.1562 223.549 55.9522 223.06 55.7891C222.624 55.6531 222.067 55.5443 221.387 55.4627C220.734 55.3811 219.959 55.3947 219.061 55.5035C218.925 59.0937 218.83 62.004 218.776 64.2344C218.721 66.4647 218.681 68.2054 218.653 69.4566C218.626 70.9525 218.613 72.0269 218.613 72.6797C218.64 73.6044 218.789 74.5156 219.061 75.4132C219.279 76.1748 219.633 76.9635 220.122 77.7795C220.612 78.5955 221.319 79.3163 222.244 79.9418H217.266C216.804 79.9418 216.233 79.969 215.553 80.0234C214.982 80.0778 214.247 80.1322 213.35 80.1866C212.479 80.241 211.459 80.3362 210.29 80.4722C210.698 79.765 211.024 79.1259 211.269 78.5547C211.514 77.9835 211.704 77.4939 211.84 77.0859C212.003 76.5963 212.126 76.1612 212.207 75.7804C212.234 75.2364 212.302 74.1348 212.411 72.4757C212.438 71.7957 212.466 70.9525 212.493 69.9462C212.547 68.9398 212.602 67.743 212.656 66.3559C212.738 64.9687 212.806 63.3776 212.86 61.5825C212.942 59.7601 213.023 57.7066 213.105 55.4219C212.615 55.2859 212.153 55.2995 211.718 55.4627C211.282 55.5987 210.902 55.7755 210.575 55.993C210.194 56.265 209.827 56.5914 209.474 56.9722C209.12 57.4346 208.726 58.033 208.291 58.7674C207.91 59.3929 207.475 60.2225 206.985 61.2561C206.495 62.2624 205.938 63.5136 205.312 65.0095C205.176 63.432 205.081 62.14 205.027 61.1337C204.972 60.1001 204.931 59.2977 204.904 58.7266C204.877 58.0466 204.863 57.5434 204.863 57.217C204.863 56.9178 204.836 56.5234 204.782 56.0338C204.727 55.6259 204.659 55.0955 204.578 54.4427C204.496 53.7627 204.387 52.9468 204.251 51.9948ZM226.242 51.9948C228.064 52.2124 229.642 52.3756 230.975 52.4844C232.307 52.566 233.409 52.634 234.279 52.6884C235.286 52.7428 236.129 52.7564 236.809 52.7292C237.516 52.702 238.482 52.634 239.705 52.5252C240.739 52.4436 242.099 52.3348 243.785 52.1988C245.472 52.0356 247.58 51.818 250.109 51.546C250.136 52.1716 250.15 52.7836 250.15 53.3819C250.177 53.9531 250.204 54.4563 250.232 54.8915C250.259 55.4083 250.272 55.8843 250.272 56.3194C250.272 56.7818 250.245 57.3666 250.191 58.0738C250.136 58.6722 250.041 59.4337 249.905 60.3585C249.796 61.2561 249.62 62.3304 249.375 63.5816C248.994 62.1128 248.627 60.9297 248.273 60.0321C247.92 59.1073 247.593 58.373 247.294 57.829C246.968 57.2034 246.641 56.7274 246.315 56.401C245.961 56.1562 245.54 55.9522 245.05 55.7891C244.615 55.6531 244.057 55.5443 243.377 55.4627C242.725 55.3811 241.949 55.3947 241.052 55.5035C240.916 59.0937 240.821 62.004 240.766 64.2344C240.712 66.4647 240.671 68.2054 240.644 69.4566C240.617 70.9525 240.603 72.0269 240.603 72.6797C240.63 73.6044 240.78 74.5156 241.052 75.4132C241.269 76.1748 241.623 76.9635 242.113 77.7795C242.602 78.5955 243.309 79.3163 244.234 79.9418H239.257C238.794 79.9418 238.223 79.969 237.543 80.0234C236.972 80.0778 236.238 80.1322 235.34 80.1866C234.47 80.241 233.45 80.3362 232.28 80.4722C232.688 79.765 233.015 79.1259 233.259 78.5547C233.504 77.9835 233.694 77.4939 233.83 77.0859C233.994 76.5963 234.116 76.1612 234.198 75.7804C234.225 75.2364 234.293 74.1348 234.402 72.4757C234.429 71.7957 234.456 70.9525 234.483 69.9462C234.538 68.9398 234.592 67.743 234.646 66.3559C234.728 64.9687 234.796 63.3776 234.85 61.5825C234.932 59.7601 235.014 57.7066 235.095 55.4219C234.606 55.2859 234.143 55.2995 233.708 55.4627C233.273 55.5987 232.892 55.7755 232.566 55.993C232.185 56.265 231.818 56.5914 231.464 56.9722C231.111 57.4346 230.716 58.033 230.281 58.7674C229.9 59.3929 229.465 60.2225 228.975 61.2561C228.486 62.2624 227.928 63.5136 227.303 65.0095C227.167 63.432 227.072 62.14 227.017 61.1337C226.963 60.1001 226.922 59.2977 226.895 58.7266C226.868 58.0466 226.854 57.5434 226.854 57.217C226.854 56.9178 226.827 56.5234 226.772 56.0338C226.718 55.6259 226.65 55.0955 226.568 54.4427C226.487 53.7627 226.378 52.9468 226.242 51.9948ZM264.348 51.0156C265.817 51.07 267.299 51.342 268.795 51.8316C270.318 52.294 271.719 53.0555 272.997 54.1163C274.275 55.1499 275.363 56.4962 276.261 58.1554C277.159 59.7873 277.716 61.7865 277.934 64.1528C278.124 66.0839 277.879 68.0014 277.199 69.9054C276.547 71.7821 275.635 73.5093 274.466 75.0868C273.296 76.6643 271.95 78.0107 270.427 79.1259C268.904 80.2138 267.381 80.9346 265.857 81.2882C264.933 81.5058 263.913 81.533 262.797 81.3698C261.71 81.1794 260.594 80.8394 259.452 80.3498C258.337 79.833 257.235 79.1803 256.147 78.3915C255.087 77.6027 254.121 76.7051 253.251 75.6988C252.38 74.6652 251.646 73.5501 251.047 72.3533C250.476 71.1565 250.123 69.9054 249.987 68.5998C249.851 67.5119 249.837 66.3151 249.946 65.0095C250.082 63.6768 250.34 62.3576 250.721 61.0521C251.129 59.7193 251.687 58.441 252.394 57.217C253.128 55.9658 254.053 54.8779 255.168 53.9531C256.283 53.0012 257.589 52.2668 259.085 51.75C260.608 51.206 262.362 50.9612 264.348 51.0156ZM257.045 67.5391C256.664 70.4494 256.936 72.7885 257.861 74.5564C258.813 76.3244 260.241 77.3987 262.145 77.7795C263.069 77.9699 263.953 77.7795 264.797 77.2083C265.667 76.6099 266.456 75.7532 267.163 74.638C267.87 73.5229 268.482 72.2173 268.999 70.7213C269.516 69.2254 269.896 67.6615 270.141 66.0295C270.386 64.3976 270.4 62.9288 270.182 61.6233C269.992 60.2905 269.652 59.1617 269.162 58.237C268.672 57.285 268.074 56.5506 267.367 56.0338C266.687 55.5171 265.98 55.2315 265.245 55.1771C263.967 55.0955 262.852 55.4355 261.9 56.197C260.948 56.9314 260.146 57.897 259.493 59.0937C258.84 60.2905 258.31 61.6369 257.902 63.1328C257.521 64.6288 257.235 66.0975 257.045 67.5391ZM278.627 52.5252C279.498 52.5524 280.259 52.566 280.912 52.566C281.565 52.5388 282.095 52.5252 282.503 52.5252H283.686C283.986 52.498 284.353 52.4844 284.788 52.4844C285.169 52.4844 285.631 52.4844 286.175 52.4844C286.719 52.4844 287.345 52.498 288.052 52.5252C288.269 53.2867 288.514 54.0347 288.786 54.7691C289.085 55.4763 289.344 56.1154 289.561 56.6866C289.833 57.3666 290.105 58.0058 290.377 58.6042C290.649 59.2025 290.976 59.9233 291.357 60.7665C291.683 61.4737 292.077 62.344 292.54 63.3776C293.002 64.384 293.546 65.5399 294.172 66.8455C294.471 66.0023 294.743 65.2271 294.988 64.52C295.26 63.8128 295.491 63.2008 295.681 62.684C295.899 62.0856 296.076 61.5417 296.212 61.0521C296.348 60.5625 296.497 59.9641 296.66 59.2569C296.796 58.6586 296.946 57.9378 297.109 57.0946C297.3 56.2514 297.49 55.2723 297.68 54.1571C298.469 54.1571 299.176 54.1571 299.802 54.1571C300.427 54.1571 300.971 54.1435 301.434 54.1163C301.951 54.1163 302.413 54.1027 302.821 54.0755C303.256 54.0755 303.841 54.0483 304.575 53.9939C305.201 53.9395 306.03 53.8987 307.064 53.8715C308.125 53.8171 309.43 53.7491 310.981 53.6675C310.409 54.0755 309.947 54.4835 309.593 54.8915C309.267 55.2723 309.009 55.6123 308.818 55.9115C308.601 56.265 308.465 56.605 308.41 56.9314C308.356 57.2034 308.302 57.829 308.247 58.8082C308.22 59.7873 308.179 60.9569 308.125 62.3168C308.098 63.6496 308.07 65.0775 308.043 66.6007C308.043 68.1238 308.057 69.5654 308.084 70.9253C308.111 72.2853 308.152 73.4685 308.206 74.4748C308.288 75.454 308.397 76.0796 308.533 76.3516C308.723 76.6779 308.982 77.0587 309.308 77.4939C309.607 77.8747 309.988 78.3099 310.45 78.7995C310.94 79.2891 311.579 79.833 312.368 80.4314C311.117 80.4858 310.069 80.5266 309.226 80.5538C308.41 80.581 307.73 80.6082 307.186 80.6354C306.561 80.6626 306.058 80.6762 305.677 80.6762C305.269 80.6762 304.711 80.6898 304.004 80.717C303.379 80.7442 302.549 80.785 301.515 80.8394C300.482 80.8666 299.149 80.921 297.517 81.0026C297.898 80.5674 298.251 80.1322 298.578 79.697C298.904 79.2619 299.176 78.8675 299.394 78.5139C299.666 78.1059 299.897 77.7115 300.087 77.3307C300.278 76.8139 300.427 75.8756 300.536 74.5156C300.645 73.3461 300.727 71.6733 300.781 69.4974C300.835 67.2943 300.835 64.3432 300.781 60.6441C300.264 61.4873 299.802 62.3304 299.394 63.1736C299.013 63.9896 298.673 64.7376 298.374 65.4175C298.047 66.2063 297.748 66.9679 297.476 67.7022C297.204 68.4638 296.919 69.307 296.62 70.2318C296.348 71.0205 296.021 71.9589 295.64 73.0469C295.287 74.1348 294.879 75.3316 294.416 76.6371L292.866 76.7187C292.648 75.6308 292.431 74.6516 292.213 73.7812C291.996 72.8837 291.778 72.1221 291.561 71.4965C291.316 70.7621 291.071 70.1094 290.826 69.5382C290.554 68.967 290.255 68.3278 289.929 67.6207C289.629 67.0223 289.262 66.3151 288.827 65.4991C288.419 64.6832 287.943 63.772 287.399 62.7656C287.127 65.5399 286.964 67.7974 286.909 69.5382C286.855 71.2517 286.855 72.5845 286.909 73.5365C286.964 74.6788 287.045 75.5084 287.154 76.0252C287.317 76.4876 287.576 77.0043 287.929 77.5755C288.229 78.0651 288.637 78.6499 289.153 79.3299C289.697 79.9826 290.391 80.717 291.234 81.533C290.636 81.533 290.01 81.533 289.357 81.533C288.705 81.533 288.106 81.5466 287.562 81.5738C286.909 81.601 286.27 81.6146 285.645 81.6146C284.992 81.6418 284.23 81.6826 283.36 81.737C282.598 81.7914 281.687 81.8458 280.626 81.9002C279.566 81.9546 278.342 82.0498 276.955 82.1858C277.553 81.805 278.043 81.4378 278.423 81.0842C278.804 80.7034 279.103 80.3634 279.321 80.0642C279.593 79.7106 279.797 79.3571 279.933 79.0035C280.015 78.7859 280.083 78.3099 280.137 77.5755C280.218 76.8411 280.286 75.9436 280.341 74.8828C280.422 73.822 280.477 72.6389 280.504 71.3333C280.558 70.0278 280.599 68.7086 280.626 67.3759C280.681 66.0159 280.722 64.6968 280.749 63.4184C280.776 62.1128 280.79 60.9433 280.79 59.9097C280.817 58.849 280.83 57.965 280.83 57.2578C280.83 56.5506 280.83 56.1018 280.83 55.9115C280.749 55.5035 280.626 55.0955 280.463 54.6875C280.327 54.3339 280.11 53.9667 279.811 53.5859C279.511 53.2051 279.117 52.8516 278.627 52.5252Z" fill="url(#paint1_linear_1_55)" fill-opacity="0.3"/>
<g filter="url(#filter0_i_1_55)">
<path d="M78.1751 10.4445L55.6246 40.9074L72.763 64.0593L63.1414 71.3704C52.9786 57.6621 36.0808 34.8148 36.0808 34.8148L0 83.5556H132.296L78.1751 10.4445Z" fill="black"/>
</g>
<path d="M130.569 82.6857H1.72656L36.0801 36.2775C36.0955 36.2983 36.1111 36.3195 36.127 36.3409C36.6088 36.9924 37.3083 37.9384 38.1797 39.1163C39.9227 41.4725 42.3531 44.7571 45.1006 48.4698C50.5954 55.8952 57.3608 65.0344 62.4424 71.8888L62.9668 72.5958L63.668 72.0636L73.29 64.7521L73.9736 64.2325L73.4629 63.5411L56.707 40.9064L78.1748 11.9064L130.569 82.6857Z" stroke="white" stroke-opacity="0.2" stroke-width="1.74074"/>
<defs>
<filter id="filter0_i_1_55" x="0" y="10.4445" width="132.296" height="73.1111" filterUnits="userSpaceOnUse" color-interpolation-filters="sRGB">
<feFlood flood-opacity="0" result="BackgroundImageFix"/>
<feBlend mode="normal" in="SourceGraphic" in2="BackgroundImageFix" result="shape"/>
<feColorMatrix in="SourceAlpha" type="matrix" values="0 0 0 0 0 0 0 0 0 0 0 0 0 0 0 0 0 0 127 0" result="hardAlpha"/>
<feOffset/>
<feGaussianBlur stdDeviation="6.96296"/>
<feComposite in2="hardAlpha" operator="arithmetic" k2="-1" k3="1"/>
<feColorMatrix type="matrix" values="0 0 0 0 1 0 0 0 0 1 0 0 0 0 1 0 0 0 0.8 0"/>
<feBlend mode="normal" in2="shape" result="effect1_innerShadow_1_55"/>
</filter>
<linearGradient id="paint0_linear_1_55" x1="264.671" y1="10.2" x2="164.081" y2="42.1879" gradientUnits="userSpaceOnUse">
<stop stop-color="white"/>
<stop offset="1" stop-color="white" stop-opacity="0"/>
</linearGradient>
<linearGradient id="paint1_linear_1_55" x1="328.31" y1="41.7778" x2="137.915" y2="84.1503" gradientUnits="userSpaceOnUse">
<stop stop-color="white"/>
<stop offset="1" stop-color="white" stop-opacity="0"/>
</linearGradient>
</defs>
</svg>
